<!DOCTYPE svg PUBLIC "-//W3C//DTD SVG 1.1//EN" "http://www.w3.org/Graphics/SVG/1.1/DTD/svg11.dtd">
<!-- Uploaded to: SVG Repo, www.svgrepo.com, Transformed by: SVG Repo Mixer Tools -->
<svg version="1.1" id="Layer_1" xmlns="http://www.w3.org/2000/svg" xmlns:xlink="http://www.w3.org/1999/xlink" viewBox="0 0 511.985 511.985" xml:space="preserve" width="800px" height="800px" fill="#1d454d" stroke="#1d454d">
<g id="SVGRepo_bgCarrier" stroke-width="0"/>
<g id="SVGRepo_tracerCarrier" stroke-linecap="round" stroke-linejoin="round"/>
<g id="SVGRepo_iconCarrier"> <path style="fill:#f3f3f3f3f3f3f3f3f31d454d;" d="M460.202,407.677l-1.812-0.516c-26.468-7.109-35.437-13.938-47.218-18.422 c-41.779-15.92-52.653-27.404-55.435-32.826c-0.109-0.188-0.188-0.406-0.281-0.594l-0.344-48.547l-99.123-1.125l-99.13,1.125 l-0.344,48.547c-0.086,0.188-0.164,0.406-0.266,0.594c-2.781,5.422-13.656,16.906-55.452,32.826 c-11.78,4.484-20.741,11.312-47.209,18.422l-1.812,0.516c-24.101,7.969-40.304,30.311-40.304,55.529v48.779h244.517h244.524v-48.779 C500.514,437.987,484.295,415.645,460.202,407.677z"/> <path style="fill:#f3f3f3f3f3f3f3f3f31d454d424953;" d="M455.749,511.985l-3.672-3.656l48.343-48.326c-0.469-8.422-2.734-16.469-6.5-23.688L437,493.237 l-45.25-45.25l47.078-47.076c-9.016-3.406-15.094-6.594-20.891-9.281l-41.265,41.279l-45.264-45.264l27.453-27.436 c-1.562-1.703-2.531-3.141-3.125-4.297c-0.109-0.188-0.188-0.406-0.281-0.594l-0.156-21.734l-99.311,99.324l-82.356-82.371 l-15.086,15.094l22.022,22.014l-45.257,45.264L94.039,391.63c-5.788,2.688-11.874,5.875-20.882,9.281l47.069,47.076l-45.249,45.25 l-56.928-56.922c-3.758,7.219-6.023,15.266-6.484,23.688l48.328,48.326l-3.664,3.656h37.49l-3.663-3.656l45.256-45.264 l45.257,45.264l-3.664,3.656h37.491l-3.664-3.656l45.257-45.264l45.248,45.264l-3.655,3.656h37.499l-3.672-3.656l45.264-45.264 l45.249,45.264l-3.656,3.656H455.749z M195.655,493.237l-45.257-45.25l45.257-45.248l45.248,45.248L195.655,493.237z M316.331,493.237l-45.256-45.25l45.256-45.248l45.25,45.248L316.331,493.237z"/> <rect x="223.993" y="377.493" style="fill:#f3f3f3f3f3f3f3f3f31d454d5E8EC;" width="63.998" height="134.49"/> <g> <polygon style="fill:#f3f3f3f3f3f3f3f3f31d454dF4F6F9;" points="156.25,355.913 191.991,436.659 255.989,390.567 156.711,316.616 "/> <polygon style="fill:#f3f3f3f3f3f3f3f3f31d454dF4F6F9;" points="355.456,316.616 255.989,390.567 319.987,436.659 355.456,355.319 "/> </g> <path style="fill:#f3f3f3f3f3f3f3f3f31d454dAC6BB;" d="M255.989,64.858c-75.967,0-137.551,58.967-137.551,148.339c0,89.374,85.2,171.62,137.551,171.62 c52.342,0,137.558-82.246,137.558-171.62C393.547,123.825,331.956,64.858,255.989,64.858z"/> <path style="fill:#f3f3f3f3f3f3f3f3f31d454d8563F;" d="M170.555,293.712c-5.336,10.344-9.039,20.717-9.039,29.545c0,31.469,75.084,82.342,94.474,82.67 c19.391-0.328,94.467-51.201,94.467-82.67c0-9.031-3.859-19.654-9.375-30.217C327.268,266.649,184.272,267.087,170.555,293.712z"/> <path style="fill:#f3f3f3f3f3f3f3f3f31d454dFB6D51;" d="M358.8,233.509c-0.094,0-0.188,0.016-0.281,0.016c-16.562,0.5-24.531,17.688-24.531,17.688 c2.469-0.766,4.891-1.094,7.141-1.094c11.438,0,18.422,8.796,3.984,16.578c-4.219,2.281-8.312,3.234-12.312,3.234 c-21.906,0-40.64-29.046-59.717-29.046c-5.633,0-11.305,2.547-17.094,9.141c-5.789-6.594-11.461-9.141-17.102-9.141 c-19.069,0-37.812,29.046-59.717,29.046c-3.991,0-8.085-0.953-12.312-3.234c-14.422-7.781-7.445-16.578,3.992-16.578 c2.25,0,4.68,0.328,7.147,1.094c0,0-7.968-17.188-24.546-17.688c-0.094,0-0.18-0.016-0.273-0.016 c-21.827,0.016-69.389,78.029,44.646,88.513c2.031,0.188,4.07,0.281,6.117,0.281c19.977,0,40.163-8.688,52.046-21.717 c11.891,13.029,32.077,21.717,52.045,21.717c2.047,0,4.078-0.094,6.125-0.281C428.187,311.538,380.626,233.509,358.8,233.509z"/> <path style="fill:#f3f3f3f3f3f3f3f3f31d454dFECD57;" d="M255.989,21.327c-82.474,0-149.332,66.858-149.332,149.34v21.327h298.671v-21.327 C405.328,88.185,338.456,21.327,255.989,21.327z"/> <g> <path style="fill:#f3f3f3f3f3f3f3f3f31d454dF5BA45;" d="M415.984,191.994H95.993c-5.89,0-10.663-4.781-10.663-10.671c0-5.891,4.773-10.656,10.663-10.656 h319.991c5.891,0,10.656,4.765,10.656,10.656C426.64,187.214,421.875,191.994,415.984,191.994z"/> <path style="fill:#f3f3f3f3f3f3f3f3f31d454dF5BA45;" d="M213.349,106.7c-5.891,0-10.664-4.766-10.672-10.656l-0.023-74.701c0-4.062,2.297-7.765,5.922-9.562 C209.545,11.297,232.568,0,255.989,0s46.436,11.296,47.404,11.781c3.625,1.797,5.938,5.5,5.938,9.546v73.342 c0,5.89-4.781,10.656-10.687,10.656c-5.875,0-10.656-4.766-10.656-10.656V28.343c-7.188-2.844-19.827-7.016-31.999-7.016 c-11.547,0-24.179,3.922-31.999,6.984l0.023,67.717C224.014,101.934,219.24,106.7,213.349,106.7L213.349,106.7z"/> </g> <g> <path style="fill:#f3f3f3f3f3f3f3f3f31d454d424953;" d="M263.528,461.784c4.172,4.156,4.172,10.906,0,15.078c-4.164,4.172-10.914,4.172-15.078,0 c-4.172-4.172-4.172-10.922,0-15.078C252.614,457.612,259.364,457.612,263.528,461.784z"/> <path style="fill:#f3f3f3f3f3f3f3f3f31d454d424953;" d="M263.528,419.114c4.172,4.156,4.172,10.92,0,15.076c-4.164,4.172-10.914,4.172-15.078,0 c-4.172-4.156-4.172-10.92,0-15.076C252.614,414.942,259.364,414.942,263.528,419.114z"/> </g> </g>
</svg>